<svg width="25" height="14" viewBox="0 0 25 14" xmlns="http://www.w3.org/2000/svg"><g fill="none" fill-rule="evenodd"><path d="M0 13.886l.083-.309 1.046-.213c.242-.127.431-.353.57-.675.138-.323.3-.95.486-1.879l1.74-8.63A3.925 3.925 0 003.6 1.138C3.437.79 3.283.549 3.14.415L2.713.309A.784.784 0 012.734 0h4.782l1.852 8.913 2.656-5.284c.136-.276.323-.713.562-1.31.238-.598.45-1.13.633-1.598L13.464 0h4.506l-.114.309-.632.127c-.173.128-.304.325-.394.591-.09.266-.207.804-.352 1.613l-.601 4.474-.604 4.485c-.083.666-.124 1.113-.124 1.34 0 .234.055.397.166.49l.694.148c.013.085.013.188 0 .309H10.11l.083-.309.662-.128c.38-.163.632-.759.757-1.787l1.19-8.757-5.727 11.002-.528.085L4.03 2.647l-1.295 8.192c-.145.835-.217 1.412-.217 1.73.007.035.01.067.01.096.014.29.09.495.228.615l1.274.297a1.16 1.16 0 010 .309H0z" fill="#0F0F0F"/><path fill="#003C7F" d="M24.4 5.962l-2.346.007.486-2.277-1.91.006-.485 2.278-2.347.007-.396 1.853 2.347-.007-.486 2.276 1.91-.006.485-2.277 2.347-.007z"/></g></svg>