<?xml version="1.0" encoding="utf-8"?>
<!-- Generator: Adobe Illustrator 23.0.4, SVG Export Plug-In . SVG Version: 6.00 Build 0)  -->
<svg version="1.1" id="Livello_1" xmlns="http://www.w3.org/2000/svg" xmlns:xlink="http://www.w3.org/1999/xlink" x="0px" y="0px"
	 viewBox="0 0 336 100" style="enable-background:new 0 0 336 100;" xml:space="preserve">
<style type="text/css">
	.st0{fill:#0F0F0F;}
	.st1{fill:#D41B17;}
</style>
<g>
	<path class="st0" d="M182,50.4c-0.7,6.1-4.1,6.7-9.4,6.8c-2,0.1-5.2,0-6.5-1.8c-0.9-1.2-0.9-3.6-0.9-5.2v-8.4
		c4.9,0,7.6,0.3,8.3,5.6h1.2c-0.1-2.1-0.1-4.2-0.2-6.3c0.1-2.3,0.2-4.7,0.2-6.9h-1.2c-0.3,3.7-1.3,6.6-8.3,6.3V28.4
		c0-2.2-0.3-2.1,1.3-2.1h3.7c5.4,0,8.1,0.4,9,6.3h1.2v-7.7h-25.4v1.4c1.6,0,3.7,0,4.4,1.7c0.5,1.4,0.5,5.2,0.5,6.8v14.1
		c0,1.6,0,5.4-0.5,6.8c-0.7,1.7-2.7,1.7-4.4,1.7c-2.2-0.4-3-1.1-4.6-2.9l-10.8-12.4c5.1-0.5,9.2-3.3,9.2-8.8c0-7.1-5.9-8.4-11.7-8.4
		c-2.1,0-4.3,0.1-6.5,0.2c-2.9-0.1-5.9-0.2-8.8-0.2v1.2c1.6,0,3.8-0.1,4.3,1.7c0.5,1.4,0.5,5.2,0.5,6.8V49c0,1.6,0,5.4-0.5,6.8
		c-0.6,1.7-2.7,1.7-4.3,1.7v1.2c2.6,0,5.1-0.2,7.7-0.2c2.4,0,4.8,0.2,7.2,0.2v-1.2c-1.6,0-3.7,0.1-4.3-1.7c-0.5-1.4-0.5-5.2-0.5-6.8
		v-6c2.7,0,2.5,0.3,4.2,2.2l8.5,10.5l2.4,3c1.3,0,2.6-0.2,3.8-0.2c1.5,0,3.1,0.2,4.6,0.2v-0.1h27.3l0.5-8.2H182z M131.9,41.6V28.3
		c0-0.6-0.1-1.5,0.6-1.8c0.5-0.2,2.7,0,3.3,0c4.6,0,7.1,3.2,7.1,7.7C142.9,41.4,138.3,41.6,131.9,41.6z"/>
	<path class="st0" d="M101.5,24.3c-0.1,0-0.2,0-0.3,0v1.4c0,0,0.1,0,0.1,0c9,0,12.2,8.4,12.2,16.1c0,7.6-2.8,16.1-11.8,16.1
		c-0.2,0-0.3,0-0.4,0v1.4c0,0,0.1,0,0.1,0c10.3,0,18.5-7.2,18.5-17.7C119.8,31.4,111.2,24.3,101.5,24.3"/>
	<g>
		<path class="st0" d="M108.7,89.7V70.2h6.6c4.6,0,7.6,2.8,7.6,6.7c0,4-3.1,6.8-7.6,6.8h-3.1v6H108.7z M112.3,80.7h2.8
			c2.5,0,4.2-1.5,4.2-3.8c0-2.2-1.7-3.7-4.2-3.7h-2.8V80.7z"/>
		<path class="st0" d="M126.2,89.7V70.2h6.9c4.4,0,7.3,2.5,7.3,6.2c0,2.3-1.1,4.2-3.1,5.3l4.3,7.9h-3.9l-3.5-6.9
			c-0.4,0-0.8,0.1-1.3,0.1h-3.2v6.8H126.2z M129.8,79.8h3.2c2.3,0,3.8-1.4,3.8-3.4c0-1.9-1.5-3.2-3.8-3.2h-3.2V79.8z"/>
		<path class="st0" d="M153,90c-5.6,0-9.6-4.3-9.6-10.1c0-5.8,4-10,9.6-10c5.6,0,9.5,4.2,9.5,10.1C162.5,85.8,158.5,90,153,90z
			 M153,87c3.4,0,5.8-2.9,5.8-7c0-4-2.4-6.9-5.8-6.9c-3.4,0-5.8,2.9-5.8,6.9C147.1,84,149.6,87,153,87z"/>
		<path class="st0" d="M169.7,81.9v7.8h-3.5V70.2h13.3v3h-9.7v5.7h7.7v2.9H169.7z"/>
		<path class="st0" d="M182.6,89.7V70.2h13.5v3h-9.9v5.3h8.1v2.9h-8.1v5.3h10.1v3H182.6z"/>
		<path class="st0" d="M214.2,74.5l-2.9,1.3c-0.9-1.9-2.5-3-4.7-3c-2.1,0-3.9,1.1-3.9,2.7c0,1.5,1.3,2,4.5,2.8c4,1,6.8,2.4,6.8,5.8
			c0,3.5-3.1,6-7.4,6c-4.1,0-6.9-1.9-8.3-5l3-1.2c0.9,2,2.6,3.2,5.4,3.2c2.2,0,3.8-1.1,3.8-2.7c0-1.6-1.4-2.2-4.6-2.9
			c-4-1-6.8-2.3-6.8-5.7c0-3.4,3.3-5.9,7.4-5.9C210.3,69.9,212.9,71.9,214.2,74.5z"/>
		<path class="st0" d="M232.1,74.5l-2.9,1.3c-0.9-1.9-2.5-3-4.7-3c-2.1,0-3.9,1.1-3.9,2.7c0,1.5,1.3,2,4.5,2.8c4,1,6.8,2.4,6.8,5.8
			c0,3.5-3.1,6-7.4,6c-4.1,0-6.9-1.9-8.3-5l3-1.2c0.9,2,2.6,3.2,5.4,3.2c2.2,0,3.8-1.1,3.8-2.7c0-1.6-1.4-2.2-4.6-2.9
			c-4-1-6.8-2.3-6.8-5.7c0-3.4,3.3-5.9,7.4-5.9C228.2,69.9,230.8,71.9,232.1,74.5z"/>
		<path class="st0" d="M239.2,89.7h-3.5V70.2h3.5V89.7z"/>
		<path class="st0" d="M252.5,90c-5.6,0-9.6-4.3-9.6-10.1c0-5.8,4-10,9.6-10c5.6,0,9.5,4.2,9.5,10.1C262,85.8,258,90,252.5,90z
			 M252.5,87c3.4,0,5.8-2.9,5.8-7c0-4-2.4-6.9-5.8-6.9c-3.4,0-5.8,2.9-5.8,6.9C246.7,84,249.1,87,252.5,87z"/>
		<path class="st0" d="M265.7,89.7V70.2h3.1l9.8,13.3V70.2h3.3v19.4h-3.1l-9.8-13.2v13.2H265.7z"/>
		<path class="st0" d="M284.7,89.7l7.3-19.4h3.8l7.3,19.4h-3.7l-1.8-5h-7.7l-1.8,5H284.7z M291,81.9h5.6l-2.8-7.7h-0.1L291,81.9z"/>
		<path class="st0" d="M309.4,70.2v16.4h9.6v3h-13.1V70.2H309.4z"/>
		<path class="st0" d="M321.9,89.7V70.2h13.5v3h-9.9v5.3h8.1v2.9h-8.1v5.3h10.1v3H321.9z"/>
	</g>
</g>
<g>
	<path class="st1" d="M89.1,41.9c0,7.3,2.6,13.6,10.1,14.9h0v-30l0,0C91.9,28,89.1,35,89.1,41.9z"/>
	<path class="st1" d="M0,0v100h99.2V59.8h0c-9.1-0.9-16.5-8.3-16.5-17.9c0-9.4,7.6-17,16.5-18.1l0,0V0H0z M32.3,51.6
		c2.6,0,4.9-0.1,7.1-0.3L37,61.5h-3.1c0.1-1.1,0.5-2.1,0.5-3.5c0-0.6-2-0.6-3.7-0.6h-7.2c-4.4,0-7.8,0-10.6,0.1
		c4-10.5,20.2-13.7,20.2-24c0-3.7-2.4-6.1-7.3-6.1c-4,0-7.4,2-7.4,5.4c0,2.4,1.8,4.3,3.9,4.3c0.6,0,1.3-0.1,1.9-0.2
		c-0.2,1.4-2.4,2.9-4.9,2.9c-3.4,0-5.5-2.5-5.5-5.8c0-6.2,7.3-8.8,12.4-8.8c7.3,0,14.1,3,14.1,9.3c0,9.2-10.4,9.1-19.4,17.2H32.3z
		 M79.3,58.3h-9.5v12c0,2.6,2.4,3.4,6.9,3.4v2.4c-4.3-0.1-7.2-0.1-10.1-0.1c-2.9,0-5.8,0.1-10.1,0.1v-2.4c4.6,0,6.9-0.9,6.9-3.4v-12
		H43.1v-2l25.2-31.2h1.5V55h9.5V58.3z"/>
	<polygon class="st1" points="48.3,55 63.5,55 63.5,36 63.5,36 	"/>
</g>
</svg>
